<svg viewBox="0 0 32 32" fill="none" xmlns="http://www.w3.org/2000/svg">
    <rect width="32" height="32" rx="4" fill="#FF3B57"/>
    <circle cx="15" cy="15" r="15" transform="matrix(-0.999999 0.00149589 0.00149589 0.999999 30.9535 0.944824)" fill="#FF3B57"/>
    <path d="M23.1783 11.4879C23.1939 11.9231 23.2377 12.597 22.5988 12.4446C21.9599 12.2921 21.2705 12.0765 19.5856 12.3057C18.3016 12.4803 17.446 12.8655 16.6587 13.1993C15.6553 13.6247 15.3105 13.8153 14.5232 14.1633C13.0668 14.8072 12.3369 14.8332 11.7862 14.8529C11.343 14.8688 10.3933 14.808 9.62809 14.0956C9.62809 14.0956 9.00894 13.4727 8.84336 12.5417C8.76661 12.1101 8.7741 12.0926 8.76749 11.5602C8.71728 7.51413 11.8899 4.17349 15.8292 4.1246C19.7685 4.07572 23.1268 7.3353 23.1783 11.4879Z" fill="white"/>
    <path d="M10.2199 15.7307C9.24426 15.0678 8.7545 16.0459 9.06062 16.5224L16.1542 28.3539C16.2492 28.5455 16.5205 28.5392 16.6064 28.3433L23.0797 14.9123C23.2905 14.3491 23.1811 13.9535 22.6003 13.7603C21.4577 13.3803 20.5739 13.4709 19.7919 13.6321C18.5703 13.8839 17.663 14.2499 16.5868 14.6628C16.4372 14.7202 15.904 14.9381 14.7105 15.446C13.5169 15.9539 13.1186 16.0566 12.6082 16.1619C11.4843 16.3935 10.8314 16.1462 10.2199 15.7307Z" fill="white"/>
</svg>
